<mxfile host="app.diagrams.net" modified="2023-04-01T06:20:54.148Z" agent="Mozilla/5.0 (Macintosh; Intel Mac OS X 10_15_7) AppleWebKit/537.36 (KHTML, like Gecko) Chrome/111.0.0.0 Safari/537.36" version="21.1.2" etag="U1Ky2Nd-UHhNWDsBh8gJ" type="github">
  <diagram name="Page-1" id="KuD4tHDzCqxiQRAWfvIm">
    <mxGraphModel>
      <root>
        <mxCell id="0" />
        <mxCell id="1" parent="0" />
      </root>
    </mxGraphModel>
  </diagram>
</mxfile>
